<svg xmlns="http://www.w3.org/2000/svg" width="78" height="78" viewBox="0 0 78 78">
  <g id="Group_194" data-name="Group 194" transform="translate(-5423 -1518)">
    <g id="Group_175" data-name="Group 175">
      <circle id="Ellipse_161" data-name="Ellipse 161" cx="39" cy="39" r="39" transform="translate(5423 1518)" fill="#141432"/>
      <g id="coffee" transform="translate(5443.515 1535.515)">
        <path id="Vector" d="M1.343,5.819A1.353,1.353,0,0,1,0,4.476V1.343A1.353,1.353,0,0,1,1.343,0,1.353,1.353,0,0,1,2.686,1.343V4.476A1.341,1.341,0,0,1,1.343,5.819Z" transform="translate(9.4 3.348)" fill="#6562fc"/>
        <path id="Vector-2" data-name="Vector" d="M1.343,5.819A1.353,1.353,0,0,1,0,4.476V1.343A1.353,1.353,0,0,1,1.343,0,1.353,1.353,0,0,1,2.686,1.343V4.476A1.341,1.341,0,0,1,1.343,5.819Z" transform="translate(16.561 3.348)" fill="#6562fc"/>
        <path id="Vector-3" data-name="Vector" d="M1.343,5.819A1.353,1.353,0,0,1,0,4.476V1.343A1.353,1.353,0,0,1,1.343,0,1.353,1.353,0,0,1,2.686,1.343V4.476A1.341,1.341,0,0,1,1.343,5.819Z" transform="translate(23.723 3.348)" fill="#6562fc"/>
        <path id="Vector-4" data-name="Vector" d="M35.361,12.515a8.945,8.945,0,0,0-8.218-8.88A7.514,7.514,0,0,0,20.733,0H7.538A7.549,7.549,0,0,0,0,7.538v.949H28.271V7.538a6.138,6.138,0,0,0-.107-1,6.216,6.216,0,0,1,.107,11.924V10.277H0V20.643a7.549,7.549,0,0,0,7.538,7.538h13.2A7.509,7.509,0,0,0,28.2,21.27a8.948,8.948,0,0,0,7.161-8.755Z" transform="translate(4.476 11.208)" fill="#6562fc"/>
        <path id="Vector-5" data-name="Vector" d="M0,0H42.97V42.97H0Z" transform="translate(42.97 42.97) rotate(180)" fill="none" opacity="0"/>
      </g>
    </g>
  </g>
</svg>
