<svg xmlns="http://www.w3.org/2000/svg" width="220.247" height="129.925" viewBox="0 0 220.247 129.925"><defs><style>.a{fill:#01e8bc;}.b{fill:#6562fc;}.c{fill:#fff;}</style></defs><g transform="translate(-77.376 -341.038)"><g transform="translate(147.829 341.038)"><g transform="translate(0 0)"><path class="a" d="M403.657-691.116l.266.067a19.957,19.957,0,0,0,1.864,9.186c-.8.533-20.636,13.913-21.568,14.512a35.926,35.926,0,0,1-4.394-9.453,41.045,41.045,0,0,1-1.331-19.238C379.892-695.709,398.664-692.048,403.657-691.116Z" transform="translate(-377.89 731.614)"/><path class="a" d="M479.866-561.287l14.179-21.834a22.622,22.622,0,0,0,5.925,1.8v25.961C496.508-554.364,483.061-558.358,479.866-561.287Z" transform="translate(-456.962 644.055)"/><path class="b" d="M396.88-757.488c.533-3.528,3.328-10.385,5.126-12.648l21.967,14.179a15.713,15.713,0,0,0-1.4,3.462Z" transform="translate(-392.615 789.066)"/><path class="a" d="M428.423-826.842a18.168,18.168,0,0,0-2.263,2.263l-22.167-14.179a40.735,40.735,0,0,1,9.786-9.918Z" transform="translate(-398.13 849.966)"/><path class="b" d="M450.2-623.429a18.172,18.172,0,0,0,2.263,2.263L438.215-599a40.736,40.736,0,0,1-9.919-9.786Z" transform="translate(-416.974 675.31)"/><path class="a" d="M623.227-615.674l-21.635-13.979a15.611,15.611,0,0,1-10.584,6.191v25.828A41.193,41.193,0,0,0,623.227-615.674Z" transform="translate(-543.141 680.136)"/><path class="b" d="M507.725-828.631a15.42,15.42,0,0,1,10.917,4.527l21.435-14.645a41.348,41.348,0,0,0-53.987-9.586L500.6-826.967A15.56,15.56,0,0,1,507.725-828.631Z" transform="translate(-461.788 854.418)"/></g></g><g transform="translate(77.376 433.235)"><path class="c" d="M92.6-400.178a17.61,17.61,0,0,1-12.716-4.927,17.079,17.079,0,0,1-5.116-12.809,17.287,17.287,0,0,1,5.208-12.95A17.569,17.569,0,0,1,92.7-435.979a19.4,19.4,0,0,1,8.539,1.9,16.762,16.762,0,0,1,6.336,5.138L102.5-423.78a11.862,11.862,0,0,0-9.384-4.739,9.962,9.962,0,0,0-7.32,3,10.243,10.243,0,0,0-3,7.554,10.054,10.054,0,0,0,2.956,7.414,9.945,9.945,0,0,0,7.32,2.956,12.122,12.122,0,0,0,9.619-4.786l5.208,4.88a17.332,17.332,0,0,1-6.522,5.326A19.718,19.718,0,0,1,92.6-400.178Z" transform="translate(-74.773 437.765)"/><path class="c" d="M243.59-435.2a4.308,4.308,0,0,1-3.144-1.243,4.19,4.19,0,0,1-1.267-3.12,4.192,4.192,0,0,1,1.267-3.12,4.312,4.312,0,0,1,3.144-1.244,4.255,4.255,0,0,1,3.1,1.244,4.192,4.192,0,0,1,1.267,3.12,4.191,4.191,0,0,1-1.267,3.12A4.251,4.251,0,0,1,243.59-435.2Zm3.613,2.628v25.713h-7.367v-25.713Z" transform="translate(-202.252 443.927)"/><path class="c" d="M310.06-370.081h-7.367v-25.712h7.038v3.33a7.8,7.8,0,0,1,6.993-4.035,9.428,9.428,0,0,1,3.191.61l-.61,7.038a9.666,9.666,0,0,0-3.239-.563,5.448,5.448,0,0,0-4.411,1.9q-1.6,1.9-1.6,5.7Z" transform="translate(-251.501 407.152)"/><path class="c" d="M400.534-369.356a13.521,13.521,0,0,1-9.854-3.754,13.153,13.153,0,0,1-3.8-9.713,12.819,12.819,0,0,1,3.848-9.666,13.651,13.651,0,0,1,9.947-3.8,14.094,14.094,0,0,1,7.3,1.924,11.609,11.609,0,0,1,4.809,5.4l-5.864,3.144a6.877,6.877,0,0,0-6.1-3.66,6.44,6.44,0,0,0-4.739,1.924,6.424,6.424,0,0,0-1.877,4.739,6.632,6.632,0,0,0,1.83,4.833,6.362,6.362,0,0,0,4.692,1.877,6.8,6.8,0,0,0,3.589-1.009,6.343,6.343,0,0,0,2.463-2.6l5.959,3.519a12.468,12.468,0,0,1-4.95,5A14.412,14.412,0,0,1,400.534-369.356Z" transform="translate(-316.779 406.989)"/><path class="b" d="M532.637-366.99q-5.631,0-8.845-3.1t-3.214-8.586v-14.686h7.367v14.733a4.976,4.976,0,0,0,1.244,3.566,4.52,4.52,0,0,0,3.448,1.314,4.519,4.519,0,0,0,3.449-1.314,4.975,4.975,0,0,0,1.243-3.566v-14.733H544.7v14.686q0,5.584-3.19,8.634T532.637-366.99Z" transform="translate(-420.448 404.717)"/><path class="c" d="M683.51-398.586H658.454V-433.26h7.789V-406H683.51Z" transform="translate(-527.357 435.656)"/><path class="c" d="M790.708-435.2a4.308,4.308,0,0,1-3.144-1.243,4.19,4.19,0,0,1-1.267-3.12,4.192,4.192,0,0,1,1.267-3.12,4.312,4.312,0,0,1,3.144-1.244,4.254,4.254,0,0,1,3.1,1.244,4.192,4.192,0,0,1,1.267,3.12,4.189,4.189,0,0,1-1.267,3.12A4.251,4.251,0,0,1,790.708-435.2Zm3.613,2.628v25.713h-7.367v-25.713Z" transform="translate(-626.484 443.927)"/><path class="c" d="M858.959-437.23a4.74,4.74,0,0,0-3.331,1.079,4,4,0,0,0-1.173,3.1v.657h7.931v6.1h-7.931v19.613h-7.32V-426.3h-3.8v-6.1h3.8v-.845q0-5.113,2.956-7.789a11.311,11.311,0,0,1,7.742-2.674,16.589,16.589,0,0,1,7.836,2.064l-2.393,5.585A10.675,10.675,0,0,0,858.959-437.23Z" transform="translate(-670.712 443.755)"/><path class="c" d="M963.69-383.381a27.856,27.856,0,0,1-.234,3.1H944.547q1.313,4.833,6.993,4.833a14.118,14.118,0,0,0,8.022-2.487l2.909,5.021a18.067,18.067,0,0,1-11.261,3.566q-6.8,0-10.464-3.894a13.546,13.546,0,0,1-3.613-9.572,13.222,13.222,0,0,1,3.754-9.618,13,13,0,0,1,9.808-3.848,13.122,13.122,0,0,1,9.337,3.472Q963.69-389.339,963.69-383.381Zm-9.172-5.678a5.9,5.9,0,0,0-3.824-1.267,6.291,6.291,0,0,0-3.918,1.267,6.344,6.344,0,0,0-2.275,3.519h12.105a6.107,6.107,0,0,0-2.089-3.519Z" transform="translate(-743.443 406.985)"/></g></g></svg>