<svg xmlns="http://www.w3.org/2000/svg" width="78" height="78" viewBox="0 0 78 78">
  <g id="Group_192" data-name="Group 192" transform="translate(-5619 -1518)">
    <circle id="Ellipse_161" data-name="Ellipse 161" cx="39" cy="39" r="39" transform="translate(5619 1518)" fill="#141432"/>
    <g id="camera" transform="translate(5639 1538)">
      <path id="Vector" d="M24.4,6.194a2.545,2.545,0,0,1-2.245-1.378L21.04,2.57A5.111,5.111,0,0,0,16.89,0H13.344A5.115,5.115,0,0,0,9.179,2.57L8.064,4.816A2.545,2.545,0,0,1,5.819,6.194,5.811,5.811,0,0,0,.012,12.372l.8,12.79C1,28.352,2.722,30.968,7,30.968H23.223c4.274,0,5.977-2.617,6.178-5.807l.805-12.79A5.811,5.811,0,0,0,24.4,6.194ZM12.787,8.129h4.645a1.161,1.161,0,1,1,0,2.323H12.787a1.161,1.161,0,0,1,0-2.323ZM15.11,24.96a5.234,5.234,0,1,1,5.234-5.234A5.234,5.234,0,0,1,15.11,24.96Z" transform="translate(3.472 3.097)" fill="#6562fc"/>
      <path id="Vector-2" data-name="Vector" d="M0,0H37.162V37.162H0Z" fill="none" opacity="0"/>
    </g>
  </g>
</svg>
