<svg xmlns="http://www.w3.org/2000/svg" width="78" height="78" viewBox="0 0 78 78">
  <g id="Group_191" data-name="Group 191" transform="translate(-5717 -1518)">
    <circle id="Ellipse_161" data-name="Ellipse 161" cx="39" cy="39" r="39" transform="translate(5717 1518)" fill="#141432"/>
    <g id="smileys" transform="translate(5735 1536)">
      <path id="Vector" d="M0,0H42.066V42.066H0Z" fill="none" opacity="0"/>
      <path id="Vector-2" data-name="Vector" d="M15.775,0H5.258A5.251,5.251,0,0,0,0,5.258V15.775a5.251,5.251,0,0,0,5.258,5.258h7.887a7.9,7.9,0,0,1,7.887-7.887V5.258A5.251,5.251,0,0,0,15.775,0ZM4.855,5.731A4.009,4.009,0,0,1,9.43,5.7,1.313,1.313,0,0,1,7.957,7.87a1.369,1.369,0,0,0-1.595.018A1.316,1.316,0,1,1,4.855,5.731ZM14.5,12.69a1.3,1.3,0,0,1-1.84.21,3.386,3.386,0,0,0-2.138-.754,3.432,3.432,0,0,0-3.4,3.05H10.8a1.315,1.315,0,1,1,0,2.629H6.731A2.267,2.267,0,0,1,4.47,15.564a6.047,6.047,0,0,1,9.83-4.715,1.308,1.308,0,0,1,.2,1.841Zm2.3-5.171a1.32,1.32,0,0,1-1.823.351,1.369,1.369,0,0,0-1.6.018,1.315,1.315,0,0,1-1.507-2.156A4.009,4.009,0,0,1,16.441,5.7a1.32,1.32,0,0,1,.35,1.819Z" transform="translate(1.753 1.753)" fill="#6562fc"/>
      <path id="Vector-3" data-name="Vector" d="M7.949.21A.636.636,0,0,0,7.458,0H.658A.636.636,0,0,0,.167.21.616.616,0,0,0,.009.719,4.08,4.08,0,0,0,4.058,4.364,4.066,4.066,0,0,0,8.107.719.659.659,0,0,0,7.949.21Z" transform="translate(23.986 29.025)" fill="#6562fc"/>
      <path id="Vector-4" data-name="Vector" d="M15.775,0H5.258A5.274,5.274,0,0,0,0,5.258V15.775a5.274,5.274,0,0,0,5.258,5.258H15.775a5.274,5.274,0,0,0,5.258-5.258V5.258A5.274,5.274,0,0,0,15.775,0ZM4.54,5.556a1.32,1.32,0,0,1,1.84-.315,1.4,1.4,0,0,0,1.577.018A1.313,1.313,0,1,1,9.43,7.432a4.092,4.092,0,0,1-2.261.7A3.947,3.947,0,0,1,4.855,7.4,1.325,1.325,0,0,1,4.54,5.556Zm5.977,12.269A6.059,6.059,0,0,1,4.47,11.778,2.267,2.267,0,0,1,6.731,9.517H14.3a2.267,2.267,0,0,1,2.261,2.261,6.059,6.059,0,0,1-6.045,6.047ZM16.441,7.414a4.092,4.092,0,0,1-2.261.7,3.947,3.947,0,0,1-2.314-.736,1.32,1.32,0,0,1,1.525-2.156,1.4,1.4,0,0,0,1.577.018,1.289,1.289,0,0,1,1.823.351A1.317,1.317,0,0,1,16.441,7.414Z" transform="translate(17.527 17.527)" fill="#6562fc"/>
    </g>
  </g>
</svg>
