<svg xmlns="http://www.w3.org/2000/svg" width="78" height="78" viewBox="0 0 78 78">
  <g id="Group_190" data-name="Group 190" transform="translate(-5815 -1518)">
    <circle id="Ellipse_161" data-name="Ellipse 161" cx="39" cy="39" r="39" transform="translate(5815 1518)" fill="#141432"/>
    <g id="cup" transform="translate(5835 1538)">
      <path id="Vector" d="M9.291,3.546H5.807a3.106,3.106,0,0,0-3.1,3.1V7.03H1.161a1.161,1.161,0,1,0,0,2.323H19.742a1.161,1.161,0,1,0,0-2.323H18.194V6.643a3.106,3.106,0,0,0-3.1-3.1H11.613V0a9.728,9.728,0,0,1-1.161.062A9.728,9.728,0,0,1,9.291,0Z" transform="translate(8.129 24.713)" fill="#6562fc"/>
      <path id="Vector-2" data-name="Vector" d="M25.084,14.927a7.575,7.575,0,0,0,2.632-1.734A8.453,8.453,0,0,0,30.1,7.463a3.939,3.939,0,0,0-3.979-3.979h-.867A6.186,6.186,0,0,0,19.7,0H10.4A6.186,6.186,0,0,0,4.847,3.484H3.979A3.939,3.939,0,0,0,0,7.463a8.453,8.453,0,0,0,2.385,5.729,7.575,7.575,0,0,0,2.632,1.734,10.832,10.832,0,0,0,20.068,0Zm-5.636-4.94-.96,1.177a1.163,1.163,0,0,0-.248.743l.093,1.517a1,1,0,0,1-1.471,1.068l-1.409-.557a1.425,1.425,0,0,0-.805,0l-1.409.557a1,1,0,0,1-1.471-1.068l.093-1.517a1.163,1.163,0,0,0-.248-.743l-.96-1.177a1,1,0,0,1,.557-1.734l1.471-.372a1.229,1.229,0,0,0,.635-.48l.821-1.27a1,1,0,0,1,1.827,0l.821,1.27a1.229,1.229,0,0,0,.635.48l1.471.372a1,1,0,0,1,.557,1.734Z" transform="translate(3.53 3.097)" fill="#6562fc"/>
      <path id="Vector-3" data-name="Vector" d="M0,0H37.162V37.162H0Z" transform="translate(37.162 37.162) rotate(180)" fill="none" opacity="0"/>
    </g>
  </g>
</svg>
