<svg xmlns="http://www.w3.org/2000/svg" width="78" height="78" viewBox="0 0 78 78">
  <g id="Group_189" data-name="Group 189" transform="translate(-5913 -1518)">
    <circle id="Ellipse_161" data-name="Ellipse 161" cx="39" cy="39" r="39" transform="translate(5913 1518)" fill="#141432"/>
    <path id="Icon_material-donut-large" data-name="Icon material-donut-large" d="M18.285,8.231V3a17.078,17.078,0,0,0,0,33.967V31.736C13.19,30.921,8.1,25.962,8.1,19.983S13.19,9.046,18.285,8.231ZM31.821,18.285h5.146A16.356,16.356,0,0,0,21.682,3V8.231A12.168,12.168,0,0,1,31.821,18.285ZM21.682,31.736v5.231A16.356,16.356,0,0,0,36.967,21.682H31.821A12.168,12.168,0,0,1,21.682,31.736Z" transform="translate(5931.999 1537)" fill="#6562fc"/>
  </g>
</svg>
